<svg xmlns="http://www.w3.org/2000/svg" height="1024" preserveAspectRatio="none" style="display: block;" version="1.1" viewBox="0 0 2048 2048" width="1024">
<defs>
	<linearGradient gradientUnits="userSpaceOnUse" id="Gradient1" x1="1967.69" x2="1443.62" y1="1079.24" y2="1101.1">
		<stop class="stop0" offset="0" stop-color="rgb(0,0,0)" stop-opacity="1"></stop>
		<stop class="stop1" offset="1" stop-color="rgb(16,27,53)" stop-opacity="1"></stop>
	</linearGradient>
	<linearGradient gradientUnits="userSpaceOnUse" id="Gradient2" x1="1662.96" x2="1615.67" y1="1380.14" y2="678.685">
		<stop class="stop0" offset="0" stop-color="rgb(94,118,241)" stop-opacity="1"></stop>
		<stop class="stop1" offset="1" stop-color="rgb(167,185,246)" stop-opacity="1"></stop>
	</linearGradient>
</defs>
<path d="M 0 0 L 2048 0 L 2048 2048 L 0 2048 L 0 1328.77 L 0 1291.33 L 0 1255.73 L 0 1252.96 L 0 1169.3 L 0 1166.49 L 0 1152.46 L 0 1149.95 L 0 1064.59 L 0 1061.75 L 0 1043.3 L 0 1040.87 L 0 965.44 L 0 962.501 L 0 941.919 L 0 938.998 L 0 861.347 L 0 858.744 L 0 843.351 L 0 840.557 L 0 755.995 L 0 753.145 L 0 733.971 L 0 731.047 L 0 0 z" fill="rgb(246,246,244)" transform="translate(0,0)"></path>
<path d="M 0 733.971 L 474.034 734.022 L 614.837 733.883 C 636.861 733.861 666.628 732.33 687.938 734.87 C 719.013 738.573 740.078 765.151 743.621 796.022 C 745.205 826.7 744.118 864.471 744.161 895.878 L 744.165 1084.89 L 744.191 1183.07 C 744.195 1199.48 744.708 1218.56 743.209 1234.71 C 742.154 1246.07 734.158 1259.45 726.729 1267.83 C 713.434 1282.83 694.806 1291.54 674.61 1291.68 C 649.517 1291.85 623.86 1291.44 598.633 1291.36 L 448.873 1291.21 L 0 1291.33 L 0 1255.73 L 0 1252.96 L 0 1169.3 L 0 1166.49 L 0 1152.46 L 0 1149.95 L 0 1064.59 L 0 1061.75 L 0 1043.3 L 0 1040.87 L 0 965.44 L 0 962.501 L 0 941.919 L 0 938.998 L 0 861.347 L 0 858.744 L 0 843.351 L 0 840.557 L 0 755.995 L 0 753.145 L 0 733.971 z" fill="rgb(246,246,244)" transform="translate(0,0)"></path>
<path d="M 0 1169.3 L 78.0255 1169.31 C 130.363 1169.07 144.585 1163.19 141.182 1226.03 C 139.355 1259.76 101.001 1253.14 76.0529 1253.1 L 0 1252.96 L 0 1169.3 z" fill="rgb(246,246,244)" transform="translate(0,0)"></path>
<path d="M 0 861.347 C 13.7266 855.436 24.9645 857.241 38.6794 857.409 C 79.4567 857.909 103.616 848.29 103.049 900.219 C 102.566 944.543 90.0576 944.028 49.1122 943.355 C 31.4601 943.065 16.7893 945.842 0 938.998 L 0 861.347 z" fill="rgb(246,246,244)" transform="translate(0,0)"></path>
<path d="M 0 1064.59 C 20.0782 1064.6 40.4533 1064.05 60.4482 1065.36 C 65.7038 1066.53 69.7118 1068.56 73.5948 1072.42 C 77.6236 1076.42 79.474 1080.95 79.8725 1086.5 C 85.2617 1161.49 66.1811 1150.11 0 1149.95 L 0 1064.59 z" fill="rgb(246,246,244)" transform="translate(0,0)"></path>
<path d="M 0 755.995 C 12.785 755.693 22.8194 753.967 32.3988 763.67 C 42.7312 774.136 39.063 793.911 39.5167 807.408 C 40.3391 831.868 29.557 841.113 6.50135 840.718 L 0 840.557 L 0 755.995 z" fill="rgb(246,246,244)" transform="translate(0,0)"></path>
<path d="M 0 1166.49 L 76.6354 1166.75 C 84.3941 1166.73 92.3671 1166.58 99.9793 1166.67 C 113.956 1166.84 124.8 1164.58 135.736 1175.52 C 143.494 1182.72 144.176 1194.03 143.822 1203.97 C 143.357 1217.04 146.622 1236.97 135.714 1246.82 C 122.324 1258.9 94.0368 1255.88 76.8401 1255.86 L 0 1255.73 L 0 1252.96 L 76.0529 1253.1 C 101.001 1253.14 139.355 1259.76 141.182 1226.03 C 144.585 1163.19 130.363 1169.07 78.0255 1169.31 L 0 1169.3 L 0 1166.49 z" fill="rgb(3,3,3)" transform="translate(0,0)"></path>
<path d="M 0 858.744 C 12.2565 852.393 30.199 854.852 43.9795 854.901 C 56.0857 854.945 73.9129 852.947 85.0737 856.613 C 92.488 858.975 98.5695 864.342 101.835 871.406 C 106.894 882.28 105.791 903.056 105.299 915.229 C 103.931 949.067 72.409 946.896 47.9141 946.056 C 30.3025 945.452 16.2357 948.662 0 941.919 L 0 938.998 C 16.7893 945.842 31.4601 943.065 49.1122 943.355 C 90.0576 944.028 102.566 944.543 103.049 900.219 C 103.616 848.29 79.4567 857.909 38.6794 857.409 C 24.9645 857.241 13.7266 855.436 0 861.347 L 0 858.744 z" fill="rgb(3,3,3)" transform="translate(0,0)"></path>
<path d="M 0 965.44 C 7.64372 973.386 10.7551 979.069 9.99134 990.239 C 8.57699 1010.92 15.4497 1024.98 0 1040.87 L 0 965.44 z" fill="rgb(246,246,244)" transform="translate(0,0)"></path>
<path d="M 0 1061.75 C 11.3718 1061.76 54.4479 1060.85 62.9848 1063.25 C 67.3385 1064.43 71.3189 1066.71 74.5511 1069.86 C 86.4855 1081.45 82.3047 1100.05 82.8336 1114.81 C 84.4339 1159.47 51.3485 1152.95 19.4125 1152.62 C 13.6429 1152.56 7.43587 1152.63 1.7857 1152.51 L 0 1152.46 L 0 1149.95 C 66.1811 1150.11 85.2617 1161.49 79.8725 1086.5 C 79.474 1080.95 77.6236 1076.42 73.5948 1072.42 C 69.7118 1068.56 65.7038 1066.53 60.4482 1065.36 C 40.4533 1064.05 20.0782 1064.6 0 1064.59 L 0 1061.75 z" fill="rgb(3,3,3)" transform="translate(0,0)"></path>
<path d="M 0 753.145 C 12.5086 752.85 22.5696 751.157 32.8451 760.192 C 46.1464 771.887 40.6056 791.155 41.9903 806.256 C 43.7412 825.351 34.2126 843.59 13.0034 843.573 C 8.66845 843.53 4.33388 843.456 0 843.351 L 0 840.557 L 6.50135 840.718 C 29.557 841.113 40.3391 831.868 39.5167 807.408 C 39.063 793.911 42.7312 774.136 32.3988 763.67 C 22.8194 753.967 12.785 755.693 0 755.995 L 0 753.145 z" fill="rgb(3,3,3)" transform="translate(0,0)"></path>
<path d="M 0 962.501 C 15.7511 974.867 12.6406 987.08 12.7338 1005.1 C 12.8304 1023.8 14.2391 1030.55 0 1043.3 L 0 1040.87 C 15.4497 1024.98 8.57699 1010.92 9.99134 990.239 C 10.7551 979.069 7.64372 973.386 0 965.44 L 0 962.501 z" fill="rgb(3,3,3)" transform="translate(0,0)"></path>
<path d="M 418.454 1029.09 C 417.922 1027.84 417.425 1026.56 416.961 1025.28 C 413.194 1014.79 412.433 983.851 418.03 973.431 C 419.866 969.367 426.985 960.829 431.384 959.991 C 449.656 956.511 470.511 957.845 489.009 957.911 L 560.859 957.919 L 639.142 957.795 C 653.991 957.773 668.784 957.533 683.628 958.089 C 705.627 958.912 710.622 969.367 714.59 988.712 C 715.941 1001.33 715.459 1020.32 715.422 1033.65 L 715.26 1106.08 L 715.999 1188.82 C 715.997 1200.28 715.646 1212.61 715.626 1224.11 C 715.591 1243.83 703.843 1253.65 684.009 1254.85 C 666.269 1255.92 645.187 1254.19 627.02 1255 C 595.885 1256.4 577.2 1250.35 575.01 1215.68 C 574.79 1208.06 574.256 1195.89 575.495 1188.78 C 573.188 1175.93 564.556 1162.67 550.303 1161.81 C 521.3 1160.05 491.361 1160.52 462.325 1161.39 C 455.76 1162.71 449.151 1168.66 445.532 1173.83 C 429.1 1197.35 456.353 1245.83 417.132 1253.39 C 408.208 1255.01 398.61 1255.01 389.55 1254.84 C 368.058 1254.46 346.365 1255.67 324.93 1254.2 C 308.337 1253.07 301.66 1246.7 295.347 1231.84 C 291.84 1226.47 290.619 1218.55 289.418 1212.28 C 289.096 1213.12 288.816 1213.69 288.481 1214.41 C 288.351 1214.35 288.221 1214.29 288.091 1214.23 C 285.888 1209.64 287.54 1203.29 289.17 1198.74 C 298.404 1160.72 309.66 1167.97 343.865 1166.63 C 357.911 1166.07 383.706 1167.99 395.923 1164.39 C 377.003 1158.61 369.643 1156.4 362.292 1137.06 C 358.637 1129.74 356.54 1124.15 355.784 1115.98 C 349.001 1042.66 398.358 1067.06 444.27 1061.61 C 426.142 1054.03 420.688 1048.83 418.454 1029.09 z" fill="rgb(3,3,3)" transform="translate(0,0)"></path>
<path d="M 444.27 1061.61 L 445.191 1061.7 C 459.732 1063.06 491.583 1061.99 507.473 1061.98 L 630.492 1061.86 C 685.757 1061.77 716.341 1049.43 709.855 1117.87 C 709.199 1124.78 706.998 1131.7 701.303 1136.33 C 697.347 1139.33 690.481 1143.31 685.376 1143.6 C 667.278 1144.62 648.068 1144.5 629.991 1144.62 L 516.335 1145.04 L 424.624 1144.65 C 409.645 1144.52 393.647 1144.71 378.692 1143.74 C 373.365 1143.39 366.836 1139.95 362.292 1137.06 C 358.637 1129.74 356.54 1124.15 355.784 1115.98 C 349.001 1042.66 398.358 1067.06 444.27 1061.61 z" fill="rgb(2,16,254)" transform="translate(0,0)"></path>
<path d="M 418.454 1029.09 C 417.922 1027.84 417.425 1026.56 416.961 1025.28 C 413.194 1014.79 412.433 983.851 418.03 973.431 C 419.866 969.367 426.985 960.829 431.384 959.991 C 449.656 956.511 470.511 957.845 489.009 957.911 L 560.859 957.919 L 639.142 957.795 C 653.991 957.773 668.784 957.533 683.628 958.089 C 705.627 958.912 710.622 969.367 714.59 988.712 C 712.826 991.85 712.909 993.603 712.785 996.978 C 712.206 1012.72 715.46 1025.8 700.534 1036.34 C 695.816 1039.67 696.604 1040.06 689.998 1040.51 C 673.032 1041.66 655.933 1041.21 638.928 1041.18 L 555.031 1040.99 L 480.712 1040.94 C 465.793 1040.92 450.745 1041.21 435.846 1040.1 C 427.108 1039.44 422.705 1031.05 418.454 1029.09 z" fill="rgb(2,16,254)" transform="translate(0,0)"></path>
<path d="M 395.923 1164.39 C 427.498 1173.4 425.582 1179.68 425.904 1211.05 C 426.426 1261.98 355.236 1237.18 323.516 1242.4 C 312.693 1244.18 303.652 1238.72 295.347 1231.84 C 291.84 1226.47 290.619 1218.55 289.418 1212.28 C 289.096 1213.12 288.816 1213.69 288.481 1214.41 C 288.351 1214.35 288.221 1214.29 288.091 1214.23 C 285.888 1209.64 287.54 1203.29 289.17 1198.74 C 298.404 1160.72 309.66 1167.97 343.865 1166.63 C 357.911 1166.07 383.706 1167.99 395.923 1164.39 z" fill="rgb(2,16,254)" transform="translate(0,0)"></path>
<path d="M 289.17 1198.74 C 289.174 1203.25 289.257 1207.77 289.418 1212.28 C 289.096 1213.12 288.816 1213.69 288.481 1214.41 C 288.351 1214.35 288.221 1214.29 288.091 1214.23 C 285.888 1209.64 287.54 1203.29 289.17 1198.74 z" fill="rgb(252,248,235)" transform="translate(0,0)"></path>
<path d="M 331.013 1196.11 C 333.982 1198 332.83 1199.31 334.24 1201.45 C 335.328 1203.1 346.361 1202.58 347.998 1202.62 C 360.414 1202.66 373.129 1201.86 385.52 1202.01 C 390.102 1202.06 389.402 1202.43 390.557 1199.05 C 391.31 1196.85 398.511 1204.27 399.505 1205.11 C 384.661 1213.39 393.415 1206.39 385.25 1205.78 C 369.572 1205.87 350.458 1205.54 334.696 1206.45 C 333.883 1206.5 334.232 1210.38 333.025 1210.74 C 328.146 1212.2 322.775 1207.77 317.972 1207.14 C 314.885 1206.66 311.171 1205.13 308.215 1204.12 C 315.412 1201.18 323.505 1198.16 331.013 1196.11 z" fill="rgb(3,3,3)" transform="translate(0,0)"></path>
<path d="M 575.495 1188.78 C 578.545 1180.65 581.538 1172.71 589.888 1168.68 C 602.879 1162.41 665.812 1161.81 679.362 1167.16 C 686.407 1169.95 690.696 1174.55 693.472 1181.58 C 698.235 1193.65 697.525 1215.75 692.315 1227.68 C 689.68 1233.71 685.725 1238.11 679.502 1240.48 C 671.098 1243.67 615.231 1244.11 603.814 1242.87 C 599.156 1242.37 594.589 1241.44 590.341 1239.4 C 582.814 1235.78 579.822 1230.17 577.371 1222.51 C 576.634 1220.21 576.065 1217.86 575.01 1215.68 C 574.79 1208.06 574.256 1195.89 575.495 1188.78 z" fill="rgb(2,16,254)" transform="translate(0,0)"></path>
<path d="M 630.132 1196.09 C 632.278 1198.39 630.63 1202.29 631.373 1203.41 C 634.47 1208.08 650.505 1203.63 655.151 1205.77 C 656.324 1206.31 656.122 1207.93 655.408 1208.4 C 653.194 1210.14 648.716 1209.66 646.035 1209.54 C 641.712 1209.34 637.433 1209.13 633.06 1209.08 C 632.798 1209.88 631.604 1214.74 630.76 1214.73 C 624.739 1214.65 612.716 1210.11 607.209 1208.26 C 615.746 1204.17 622.704 1201.86 630.132 1196.09 z" fill="rgb(3,3,3)" transform="translate(0,0)"></path>
<path d="M 473.386 753.118 C 489.373 752.187 507.074 752.951 523.264 752.928 C 575.509 752.852 627.784 752.768 680.027 752.945 C 683.665 752.957 693.437 753.678 696.358 755.103 C 708.298 760.928 714.262 775.184 714.222 787.955 C 714.084 812.646 718.419 832.457 690.946 842.661 C 672.927 843.942 652.011 843.052 633.731 843.08 C 583.4 842.949 533.176 843.59 482.836 843.258 C 459.251 843.102 449.584 829.68 449.578 806.696 C 449.572 783.552 446.98 762.597 473.386 753.118 z" fill="rgb(3,3,3)" transform="translate(0,0)"></path>
<path d="M 476.081 755.289 C 544.636 756.324 613.532 754.598 682.1 755.676 C 709.666 756.109 712.007 776.014 711.626 798.547 C 711.291 818.366 712.004 834.312 688.675 840.244 C 620.048 841.874 550.096 839.741 481.378 840.41 C 452.934 840.687 451.712 817.673 452.207 795.605 C 452.638 776.393 453.439 760.416 476.081 755.289 z" fill="rgb(246,246,244)" transform="translate(0,0)"></path>
<path d="M 532.372 855.232 C 554.749 853.74 584.391 855.581 607.547 855.039 C 631.574 855.391 656.279 854.577 680.241 855.384 C 709.16 856.358 714.827 872.711 714.153 898.615 C 713.564 921.264 715.904 935.975 690.653 944.9 C 675.673 946.637 533.926 946.822 526.196 943.644 C 518.985 940.682 513.361 934.813 510.709 927.483 C 508.134 920.415 508.11 912.635 508.196 905.181 C 508.478 881.044 505.703 864.66 532.372 855.232 z" fill="rgb(3,3,3)" transform="translate(0,0)"></path>
<path d="M 531.026 858.209 C 548.221 856.457 684.853 856.515 694.363 860.206 C 700.421 862.558 706.034 867.602 708.625 873.581 C 712.43 882.361 712.685 917.999 709.06 926.75 C 705.566 935.183 698.399 939.166 690.268 942.29 C 677.611 943.858 539.432 944.244 530.18 941.709 C 523.707 939.935 517.598 935.564 514.38 929.584 C 509.273 920.093 509.067 885.613 512.81 875.33 C 516.048 866.435 522.759 861.981 531.026 858.209 z" fill="rgb(246,246,244)" transform="translate(0,0)"></path>
<path d="M 234.49 1166.55 C 264.989 1165.04 286.219 1166.63 285.797 1204.11 C 285.987 1216.92 287.367 1238.38 276.633 1247.57 C 261.885 1260.21 219.252 1255.74 200.5 1255.62 C 174.911 1255.46 153.583 1258.98 149.808 1225.3 C 141.437 1150.62 182.293 1168.03 234.49 1166.55 z" fill="rgb(3,3,3)" transform="translate(0,0)"></path>
<path d="M 174.325 1169.23 C 191.654 1169.34 208.984 1169.35 226.314 1169.27 C 265.846 1168.83 285.464 1164.88 282.953 1213.08 C 281.903 1233.25 284.332 1247.15 259.826 1252.68 C 244.278 1253.53 175.552 1255.25 165.874 1249.64 C 159.238 1245.79 155.02 1238.86 153.311 1231.52 C 150.422 1219.13 150.168 1190.7 157.295 1179.9 C 161.543 1173.47 166.987 1170.85 174.325 1169.23 z" fill="rgb(246,246,244)" transform="translate(0,0)"></path>
<path d="M 256.78 1061.48 C 316.482 1061.59 359.281 1046.4 351.255 1120.91 C 349.297 1139.08 341.662 1150.67 323.25 1152.91 C 305.874 1152.83 252.109 1156.86 239.802 1147.35 C 232.562 1141.76 229.397 1132.86 228.564 1124.03 C 227.089 1108.4 225.062 1083.08 235.92 1070.75 C 241.721 1064.16 248.277 1062.09 256.78 1061.48 z" fill="rgb(3,3,3)" transform="translate(0,0)"></path>
<path d="M 253.295 1064.28 C 274.928 1063.72 296.672 1064.6 318.49 1064.43 C 355.168 1064.13 348.925 1102.94 347.557 1128.2 C 346.959 1139.25 335.849 1147.34 325.733 1149.91 C 309.572 1150.02 252.728 1153.37 241.866 1145.81 C 236.002 1141.72 232.94 1134.62 231.602 1127.84 C 229.053 1114.9 228.715 1085.27 236.171 1074.55 C 240.507 1068.32 246.035 1065.74 253.295 1064.28 z" fill="rgb(246,246,244)" transform="translate(0,0)"></path>
<path d="M 180.412 957.219 C 195.48 955.977 252.251 955.652 263.267 960.791 C 270.184 964.018 275.037 970.335 277.373 977.504 C 281.406 989.878 280.663 1021.41 274.737 1032.89 C 270.271 1041.53 264.39 1045.51 255.322 1048.43 C 241.338 1049.68 185.588 1050.03 172.062 1045.54 C 152.501 1039.04 154.021 993.452 158.263 977.002 C 160.944 966.607 169.401 961.03 180.412 957.219 z" fill="rgb(3,3,3)" transform="translate(0,0)"></path>
<path d="M 179.001 960.198 C 191.091 958.757 250.993 958.462 260.453 962.294 C 266.641 964.799 271.48 970.528 273.859 976.656 C 278.243 987.951 277.846 1019.62 272.915 1030.54 C 269.23 1038.69 264.54 1042.37 256.288 1045.37 C 237.757 1047.17 192.604 1047.08 174.492 1043.43 C 155.374 1039.58 157.604 997.621 159.485 982.961 C 160.939 971.624 168.209 964.57 179.001 960.198 z" fill="rgb(246,246,244)" transform="translate(0,0)"></path>
<path d="M 122.166 1061.37 C 138.443 1061.27 193.979 1058.1 204.479 1066.68 C 222.962 1081.8 227.894 1147.2 190.133 1152.4 C 172.335 1152.85 120.499 1156.91 107.611 1147.63 C 100.575 1142.56 96.3605 1134.21 95.1301 1125.76 C 92.9795 1110.97 92.3995 1084.28 101.998 1072.19 C 107.489 1065.27 113.609 1062.57 122.166 1061.37 z" fill="rgb(3,3,3)" transform="translate(0,0)"></path>
<path d="M 119.236 1064.27 C 133.656 1063.42 190.633 1061.42 201.53 1067.75 C 207.633 1071.3 211.459 1077.56 213.1 1084.31 C 216.28 1097.37 216.106 1127.94 208.945 1138.91 C 204.636 1145.51 199.43 1148.08 191.905 1149.67 C 175.511 1150.14 122.332 1153.36 110.085 1146.11 C 104.069 1142.55 100.086 1135.8 98.3886 1129.17 C 95.1019 1116.33 95.3739 1086.99 102.359 1075.85 C 106.499 1069.24 111.772 1066.03 119.236 1064.27 z" fill="rgb(246,246,244)" transform="translate(0,0)"></path>
<path d="M 476.599 1166.46 C 483.549 1166.44 491.386 1165.96 498.355 1166.39 C 526.445 1168.12 569.205 1155.45 571.121 1197.54 C 572.317 1223.8 574.718 1253.8 540.229 1255.25 C 517.584 1255.5 491.012 1256.84 468.54 1254.44 C 453.567 1251.64 446.109 1236.59 445.817 1223.08 C 445.254 1197.09 442.396 1168.46 476.599 1166.46 z" fill="rgb(3,3,3)" transform="translate(0,0)"></path>
<path d="M 469.287 1169.25 C 486.906 1168.99 541.13 1165.93 554.424 1172.16 C 560.666 1175.08 564.788 1180.97 566.777 1187.43 C 570.676 1200.1 570.53 1228.51 564.301 1240.06 C 560.392 1247.3 555.693 1249.9 547.995 1252.2 C 532.017 1253.31 475.199 1255.66 463.207 1249.73 C 456.908 1246.61 452.506 1240.57 450.367 1234 C 446.45 1221.95 446.989 1192 453.128 1181.15 C 457.059 1174.2 461.818 1171.46 469.287 1169.25 z" fill="rgb(246,246,244)" transform="translate(0,0)"></path>
<path d="M 465.252 1201.25 C 466.187 1202.15 466.193 1203.72 466.603 1203.91 C 469.855 1205.38 475.462 1204.72 479.296 1204.78 C 502.506 1205.11 525.772 1204.89 548.983 1204.97 C 549.761 1204.97 554.591 1204.51 553.936 1206.6 C 553.229 1208.86 542.583 1207.9 540.75 1207.91 C 516.219 1207.96 491.317 1207.89 466.984 1208.2 C 466.445 1208.21 466.808 1210.42 466.191 1211.28 C 465.238 1211.64 464.65 1211.28 463.631 1210.82 C 460.278 1209.26 456.948 1207.65 453.641 1206 C 457.792 1204.14 461.137 1202.94 465.252 1201.25 z" fill="rgb(3,3,3)" transform="translate(0,0)"></path>
<path d="M 47.7177 957.158 C 61.4586 955.855 118.745 955.483 129.554 960.828 C 136.36 964.193 140.919 971.058 143.106 978.147 C 147.214 991.46 147.301 1021.2 140.614 1033.34 C 136.039 1041.65 129.739 1045.46 120.808 1047.93 C 106.955 1049.27 49.4707 1049.9 39.0069 1044.96 C 32.0024 1041.64 26.9012 1034.78 24.4932 1027.55 C 20.4193 1015.33 20.9802 983.037 27.1331 972.051 C 32.0083 963.347 38.5691 959.916 47.7177 957.158 z" fill="rgb(3,3,3)" transform="translate(0,0)"></path>
<path d="M 51.8639 959.333 C 73.6337 959.425 97.237 959.604 118.84 960.293 C 142.736 961.056 142.95 988.984 142.527 1006.71 C 142.053 1026.59 140.349 1042.59 116.534 1045.63 C 70.0157 1044.7 18.2542 1059.83 24.8459 999.895 C 27.2724 977.834 24.9068 964.252 51.8639 959.333 z" fill="rgb(246,246,244)" transform="translate(0,0)"></path>
<path d="M 403.266 855.324 C 418.231 854.373 475.585 853.129 485.799 858.591 C 492.628 862.243 497.112 869.333 499.212 876.612 C 503.285 890.731 503.083 920.099 495.422 932.579 C 491.042 939.714 485.305 943.24 477.256 945.037 C 462.489 946.346 404.678 948.351 393.695 942.892 C 386.824 939.477 382.382 932.101 380.257 924.975 C 376.272 911.615 376.024 882.618 382.893 870.414 C 387.738 861.806 394.053 858.08 403.266 855.324 z" fill="rgb(3,3,3)" transform="translate(0,0)"></path>
<path d="M 402.299 858.202 C 415.972 857.232 472.929 855.748 483.392 860.472 C 489.676 863.309 494.109 869.062 496.287 875.498 C 500.329 887.444 500.086 917.246 494.307 928.47 C 490.191 936.465 485.284 939.557 476.948 942.354 C 463.562 943.924 405.573 945.187 395.141 940.557 C 389.55 938.077 385.6 932.545 383.451 926.985 C 378.931 915.285 378.667 885.046 383.885 873.787 C 387.864 865.2 393.588 861.284 402.299 858.202 z" fill="rgb(246,246,244)" transform="translate(0,0)"></path>
<path d="M 313.379 957.301 C 337.096 957.055 372.482 954.235 394.443 960.924 C 413.771 966.812 412.729 1020.14 404.456 1033.72 C 399.897 1041.12 392.641 1046.45 384.222 1048.59 C 368.493 1049.44 313.971 1051.29 302.797 1045.19 C 295.86 1041.39 291.3 1034.22 289.344 1026.72 C 285.897 1013.49 286.255 982.482 293.138 971.081 C 298.116 962.836 304.289 959.609 313.379 957.301 z" fill="rgb(3,3,3)" transform="translate(0,0)"></path>
<path d="M 312.366 960.241 C 326.014 959.216 381.047 958.031 391.493 962.403 C 397.717 965.007 402.311 970.692 404.517 976.964 C 408.643 988.696 408.469 1020.53 402.744 1031.41 C 398.844 1038.82 393.21 1042.86 385.371 1045.51 C 371.924 1046.57 315.359 1047.91 305.333 1043.46 C 299.248 1040.77 294.787 1034.72 292.637 1028.57 C 288.645 1017.14 288.934 984.808 294.419 974.177 C 298.578 966.117 303.943 962.961 312.366 960.241 z" fill="rgb(246,246,244)" transform="translate(0,0)"></path>
<path d="M 273.688 855.17 C 289.867 854.531 341.782 852.232 354.314 858.917 C 361.735 862.875 366.972 870.261 368.946 878.361 C 372.038 891.054 371.941 921.058 364.944 932.048 C 359.917 939.943 353.266 943.671 344.363 945.851 C 327.57 945.932 275.862 949.068 263.103 942.16 C 256.159 938.4 251.591 931.471 249.539 923.979 C 245.816 910.386 245.955 881.594 253.105 869.556 C 258.155 861.054 264.46 857.682 273.688 855.17 z" fill="rgb(3,3,3)" transform="translate(0,0)"></path>
<path d="M 273.652 858.143 C 294.187 856.988 315.959 857.891 336.45 857.591 C 360.665 857.236 368.355 873.643 367.673 895.068 C 367.003 916.16 370.138 935.276 345.38 942.943 C 323.812 943.529 302.108 943.081 280.462 943.135 C 243.967 943.226 249.951 906.287 251.416 881.096 C 252.108 869.202 262.824 860.852 273.652 858.143 z" fill="rgb(246,246,244)" transform="translate(0,0)"></path>
<path d="M 337.398 753.214 C 352.994 752.221 407.847 750.602 419.942 755.838 C 426.276 758.579 430.574 764.774 432.997 771.034 C 437.973 783.893 438.404 814.813 432.346 827.263 C 428.074 836.043 422.044 839.803 413.19 843.07 C 396.685 845.135 347.863 845.447 330.802 840.194 C 310.895 834.066 312.994 797.059 314.498 780.237 C 315.715 766.63 323.597 757.852 337.398 753.214 z" fill="rgb(3,3,3)" transform="translate(0,0)"></path>
<path d="M 341.087 755.352 C 400.144 754.963 442.256 739.403 433.031 814.714 C 431.164 829.949 424.098 837.332 409.858 840.882 C 392.902 840.999 345.393 844.235 328.919 836.308 C 314.109 829.182 316.18 798.23 316.709 783.762 C 317.264 768.593 324.695 758.351 341.087 755.352 z" fill="rgb(246,246,244)" transform="translate(0,0)"></path>
<path d="M 138.265 855.211 C 152.691 854.011 207.778 852.591 219.297 857.446 C 225.747 860.164 230.512 866.35 233.075 872.698 C 237.938 884.74 238.642 917.137 233.015 929.096 C 228.846 937.955 222.587 942.021 213.715 945.328 C 195.65 947.151 151.111 947.316 132.301 943.351 C 110.706 938.799 112.971 893.937 116.301 877.576 C 118.41 867.214 127.51 859.769 138.265 855.211 z" fill="rgb(3,3,3)" transform="translate(0,0)"></path>
<path d="M 142.84 857.412 C 158.3 857.436 210.172 854.4 221.167 861.507 C 227.195 865.404 230.892 872.29 232.41 879.153 C 235.242 891.955 235.641 921.035 228.485 931.835 C 223.944 938.69 217.923 941.669 210.026 943.143 C 194.923 943.219 137.665 945.765 129.166 939.056 C 112.969 926.271 106.401 863.497 142.84 857.412 z" fill="rgb(246,246,244)" transform="translate(0,0)"></path>
<path d="M 208.359 753.129 C 223.476 752.076 278.566 750.561 289.844 755.979 C 296.932 759.385 301.823 766.297 304.165 773.649 C 308.375 786.862 308.263 816.124 301.553 828.3 C 296.988 836.584 291.257 840.182 282.382 842.84 C 265.784 844.522 217.202 846.056 200.709 840.434 C 181.289 833.815 183.323 793.164 185.763 776.532 C 187.358 765.663 196.785 757.231 208.359 753.129 z" fill="rgb(3,3,3)" transform="translate(0,0)"></path>
<path d="M 296.395 764.053 C 298.111 766.482 301.627 771.38 301.885 774.331 C 306.331 829.646 305.922 843.481 247.51 841.081 C 199.029 841.331 185.446 844.234 187.341 790.419 C 184.594 759.567 206.481 753.02 232.705 755.035 C 251.16 756.453 279.136 750.508 294.676 762.129 C 295.768 762.492 295.865 762.745 296.303 763.831 L 296.395 764.053 z" fill="rgb(246,246,244)" transform="translate(0,0)"></path>
<path d="M 60.6047 834.346 C 50.1691 822.331 52.5527 816.547 51.7492 802.929 C 48.5474 748.659 70.4387 752.092 114.574 752.871 C 142.497 753.365 172.818 746.223 173.02 789.58 C 173.01 809.307 174.915 841.047 145.362 843.051 C 124.455 844.468 102.47 843.079 81.464 843.182 C 73.7878 843.22 67.0028 840.941 61.513 835.316 C 60.889 834.785 61.0564 834.948 60.6047 834.346 z" fill="rgb(3,3,3)" transform="translate(0,0)"></path>
<path d="M 80.2207 755.363 C 96.1434 755.495 145.491 752.103 157.299 759.028 C 163.311 762.553 167.207 768.852 168.908 775.494 C 172.353 788.948 172.129 817.17 164.713 828.836 C 159.97 836.297 154.373 839.002 145.92 840.721 C 90.5979 840.043 45.9234 857.138 54.3463 783.928 C 56.3861 766.198 62.2065 757.391 80.2207 755.363 z" fill="rgb(246,246,244)" transform="translate(0,0)"></path>
<path d="M 746.609 794.605 C 769.154 820.223 763.13 857.923 763.039 890.295 L 763.115 1001 L 763.054 1162.25 C 763.111 1186.19 764.479 1226.68 762.991 1249.45 C 761.62 1272.39 751.035 1293.8 733.639 1308.83 C 702.435 1335.57 660.572 1328.73 622.033 1328.61 L 490.369 1328.54 L 0 1328.77 L 0 1291.33 L 448.873 1291.21 L 598.633 1291.36 C 623.86 1291.44 649.517 1291.85 674.61 1291.68 C 694.806 1291.54 713.434 1282.83 726.729 1267.83 C 734.158 1259.45 742.154 1246.07 743.209 1234.71 C 744.708 1218.56 744.195 1199.48 744.191 1183.07 L 744.165 1084.89 L 744.161 895.878 C 744.118 864.471 745.205 826.7 743.621 796.022 L 746.609 794.605 z" fill="rgb(3,3,3)" transform="translate(0,0)"></path>
<path d="M 0 731.047 L 476.957 731.149 L 616.951 730.982 C 640.405 730.965 665.804 730.157 689.106 732.141 C 701.988 733.239 717.299 743.17 726.405 751.95 C 739.661 765.174 742.548 777.157 746.609 794.605 L 743.621 796.022 C 740.078 765.151 719.013 738.573 687.938 734.87 C 666.628 732.33 636.861 733.861 614.837 733.883 L 474.034 734.022 L 0 733.971 L 0 731.047 z" fill="rgb(3,3,3)" transform="translate(0,0)"></path>
<path d="M 1381.98 815.18 C 1403.96 779.444 1444.01 742.403 1478.69 720.8 C 1610.54 638.652 1779.88 676.829 1874.15 797.085 C 1879.02 803.304 1888.25 815.274 1891.09 822.324 C 1899.91 823.144 1909.44 823.825 1918.1 825.338 C 1917.29 830.757 1914.08 850.125 1914.16 854.696 C 1915.8 857.257 1915.87 857.38 1916.29 860.486 C 1917.76 871.271 1924.07 880.21 1929.29 889.612 C 1939.54 891.514 1952.66 892.165 1962.03 894.185 C 1963.08 896.961 1955.87 933.434 1954.98 939.637 C 1956.88 943.105 1958.12 951.924 1959.21 956.067 C 1984.78 1053.02 1971.45 1146.51 1916.21 1232.17 C 1868.22 1305.68 1793.27 1357.38 1707.51 1376.12 C 1622.98 1394.5 1534.6 1378.29 1462.09 1331.11 C 1318.08 1237.44 1271.85 1047.19 1344.69 895.327 C 1350.24 883.756 1355.97 868.335 1362.87 857.743 C 1360.91 854.198 1347.7 814.836 1345.48 808.402 C 1356.2 809.491 1371.42 812.823 1381.98 815.18 z" fill="url(#Gradient2)" transform="translate(0,0)"></path>
<path d="M 1448.13 1277.2 C 1424.71 1275.52 1409.08 1260.42 1402.77 1238.43 C 1391.67 1199.75 1381.33 1160.83 1370.02 1122.21 L 1350.01 1051.94 C 1346.29 1038.82 1341.82 1025.04 1339.26 1011.77 C 1335.52 998.304 1348.35 978.305 1362.37 976.826 C 1380.75 974.886 1404.66 976.411 1423.58 976.336 L 1612.69 976.322 L 1709.75 976.264 C 1728.81 976.108 1748.62 975.36 1767.62 976.227 C 1776.84 976.648 1785.29 981.119 1792.99 985.911 C 1814.04 1004.08 1818.98 1035.85 1826.58 1062.04 C 1836.94 1097.59 1847.05 1133.21 1856.92 1168.9 C 1860.95 1183.25 1865.06 1197.57 1869.26 1211.87 C 1872.55 1223.01 1876.63 1234.85 1878.02 1246.39 C 1878.85 1253.19 1877.33 1260.98 1872.37 1265.95 C 1862.11 1276.61 1852.37 1277.31 1838.67 1277.37 C 1801.53 1277.53 1764.43 1277.34 1727.32 1277.46 L 1448.13 1277.2 z" fill="rgb(246,246,244)" transform="translate(0,0)"></path>
<path d="M 1737.56 802.691 C 1773.78 808.711 1810.83 812.42 1847.11 818.447 C 1869.55 822.176 1892.25 825.123 1914.88 827.414 C 1912.09 847.882 1909.94 868.87 1906.62 889.185 C 1899.09 937.23 1890.06 987.023 1884.52 1035.15 C 1862.78 1026.36 1836.49 1015.21 1814.5 1008.06 C 1808.07 998.186 1803.78 991.188 1794.25 984.112 C 1773.2 968.645 1738.72 973.151 1712.44 973.502 C 1713.56 960.272 1717.57 937.985 1719.69 923.564 C 1725.58 883.545 1730.92 842.467 1737.56 802.691 z" fill="rgb(246,246,244)" transform="translate(0,0)"></path>
<path d="M 1742.31 923.386 C 1742.9 923.323 1743.48 923.26 1744.07 923.198 C 1787.08 927.917 1830.47 935.154 1873.34 941.604 C 1874.06 942.21 1874.78 942.816 1875.5 943.422 C 1871.69 943.898 1852.86 941.494 1849.37 940.621 C 1834.05 936.785 1749.69 929.425 1742.31 923.386 z" fill="rgb(3,3,3)" transform="translate(0,0)"></path>
<path d="M 1753.29 857.303 C 1754.65 857.366 1756.04 857.401 1757.38 857.599 C 1793.08 862.852 1828.73 868.518 1864.47 873.48 C 1870.86 874.367 1877.26 874.929 1883.45 876.711 C 1883.96 877.373 1884.47 878.035 1884.97 878.696 C 1871.49 879.896 1775.38 862.068 1755.53 859.56 C 1754 859.367 1754.33 859.027 1753.29 857.303 z" fill="rgb(3,3,3)" transform="translate(0,0)"></path>
<path d="M 1748.1 891.262 C 1752.19 890.947 1755.89 891.615 1761.56 892.47 C 1799.9 898.26 1838.66 903.546 1876.9 910.059 C 1877.58 910.974 1878.27 911.889 1878.95 912.804 C 1872.74 912.191 1849.69 909.015 1844.87 907.801 C 1831.99 904.56 1753.2 896.734 1748.1 891.262 z" fill="rgb(3,3,3)" transform="translate(0,0)"></path>
<path d="M 1910.77 886.553 C 1918.9 888.466 1921.1 888.676 1929.29 889.612 C 1939.54 891.514 1952.66 892.165 1962.03 894.185 C 1963.08 896.961 1955.87 933.434 1954.98 939.637 C 1949.84 963.296 1945.8 990.496 1941.27 1014.68 L 1913.17 1161.46 L 1904.57 1208.11 C 1900.29 1231.38 1899.47 1247.07 1880.52 1263.91 C 1864.73 1279.25 1853.2 1280.46 1832 1280.1 C 1819.72 1279.89 1806.93 1279.92 1794.6 1279.8 C 1778.99 1280.47 1752.99 1280.44 1737.42 1279.81 C 1719.47 1279.99 1701.52 1279.99 1683.57 1279.81 C 1673.53 1280.22 1659.43 1280.21 1649.44 1279.81 C 1645.74 1280 1640.4 1279.82 1636.56 1279.81 C 1631.07 1280.03 1626.98 1280.04 1621.44 1279.81 C 1605.07 1280.64 1581.5 1279.96 1564.43 1279.97 L 1458.41 1279.91 C 1455.46 1279.4 1452.69 1279.01 1449.73 1278.59 L 1448.13 1277.2 L 1727.32 1277.46 C 1764.43 1277.34 1801.53 1277.53 1838.67 1277.37 C 1852.37 1277.31 1862.11 1276.61 1872.37 1265.95 C 1877.33 1260.98 1878.85 1253.19 1878.02 1246.39 C 1876.63 1234.85 1872.55 1223.01 1869.26 1211.87 C 1865.06 1197.57 1860.95 1183.25 1856.92 1168.9 C 1847.05 1133.21 1836.94 1097.59 1826.58 1062.04 C 1818.98 1035.85 1814.04 1004.08 1792.99 985.911 L 1794.25 984.112 C 1803.78 991.188 1808.07 998.186 1814.5 1008.06 C 1836.49 1015.21 1862.78 1026.36 1884.52 1035.15 C 1890.06 987.023 1899.09 937.23 1906.62 889.185 L 1910.77 886.553 z" fill="url(#Gradient1)" transform="translate(0,0)"></path>
<path d="M 1930.41 892.58 C 1940.14 894.001 1949.99 895.308 1959.6 897.28 L 1962.03 894.185 C 1963.08 896.961 1955.87 933.434 1954.98 939.637 C 1949.84 963.296 1945.8 990.496 1941.27 1014.68 L 1913.17 1161.46 L 1904.57 1208.11 C 1900.29 1231.38 1899.47 1247.07 1880.52 1263.91 L 1880.82 1259.85 C 1884.39 1249.73 1890.33 1195.66 1892.52 1180.67 C 1906.24 1084.79 1918.87 988.75 1930.41 892.58 z" fill="rgb(246,246,244)" transform="translate(0,0)"></path>
<path d="M 1962.03 894.185 C 1963.08 896.961 1955.87 933.434 1954.98 939.637 C 1949.84 963.296 1945.8 990.496 1941.27 1014.68 L 1913.17 1161.46 L 1904.57 1208.11 C 1900.29 1231.38 1899.47 1247.07 1880.52 1263.91 L 1880.82 1259.85 C 1886.59 1256.12 1893.84 1244.66 1895.32 1237.85 C 1919.8 1125.05 1937.75 1010.57 1959.6 897.28 L 1962.03 894.185 z" fill="rgb(3,3,3)" transform="translate(0,0)"></path>
<path d="M 1737.42 1279.81 C 1744.21 1278.1 1788.1 1278.01 1794.6 1279.8 C 1778.99 1280.47 1752.99 1280.44 1737.42 1279.81 z" fill="rgb(10,21,62)" transform="translate(0,0)"></path>
<path d="M 1649.44 1279.81 C 1655.87 1278.4 1677.25 1278.35 1683.57 1279.81 C 1673.53 1280.22 1659.43 1280.21 1649.44 1279.81 z" fill="rgb(10,21,62)" transform="translate(0,0)"></path>
<path d="M 1621.44 1279.81 C 1627.29 1278.57 1630.71 1278.55 1636.56 1279.81 C 1631.07 1280.03 1626.98 1280.04 1621.44 1279.81 z" fill="rgb(10,21,62)" transform="translate(0,0)"></path>
<path d="M 1345.48 808.402 C 1356.2 809.491 1371.42 812.823 1381.98 815.18 C 1414.67 821.928 1447.4 828.498 1480.17 834.89 C 1491.31 837.08 1518.44 843.15 1528.32 843.707 C 1523.33 850.005 1517.54 855.074 1511.69 860.559 C 1478.68 891.53 1447.31 924.16 1414.13 954.981 C 1409.68 959.112 1405.03 963.464 1400.87 967.853 C 1390.52 935.559 1379.15 903.79 1367.76 871.854 C 1366.13 867.288 1364.22 862.37 1362.87 857.743 C 1360.91 854.198 1347.7 814.836 1345.48 808.402 z" fill="rgb(3,3,3)" transform="translate(0,0)"></path>
<path d="M 1350.73 811.374 C 1367.54 814.354 1385.5 819.228 1402.54 822.658 L 1522.58 846.007 C 1517.69 851.907 1507.7 860.196 1501.76 865.766 C 1488.56 878.226 1475.6 890.951 1462.91 903.933 C 1448.37 919.955 1419.22 946.287 1402.53 961.124 C 1395.99 942.496 1349.4 817.576 1350.73 811.374 z" fill="rgb(2,16,254)" transform="translate(0,0)"></path>
<path d="M 1735.41 799.489 C 1787.02 807.723 1839.33 813.988 1891.09 822.324 C 1899.91 823.144 1909.44 823.825 1918.1 825.338 C 1917.29 830.757 1914.08 850.125 1914.16 854.696 C 1915.8 857.257 1915.87 857.38 1916.29 860.486 C 1917.76 871.271 1924.07 880.21 1929.29 889.612 C 1921.1 888.676 1918.9 888.466 1910.77 886.553 L 1906.62 889.185 C 1909.94 868.87 1912.09 847.882 1914.88 827.414 C 1892.25 825.123 1869.55 822.176 1847.11 818.447 C 1810.83 812.42 1773.78 808.711 1737.56 802.691 C 1730.92 842.467 1725.58 883.545 1719.69 923.564 C 1717.57 937.985 1713.56 960.272 1712.44 973.502 C 1738.72 973.151 1773.2 968.645 1794.25 984.112 L 1792.99 985.911 C 1785.29 981.119 1776.84 976.648 1767.62 976.227 C 1748.62 975.36 1728.81 976.108 1709.75 976.264 L 1612.69 976.322 L 1423.58 976.336 C 1404.66 976.411 1380.75 974.886 1362.37 976.826 C 1348.35 978.305 1335.52 998.304 1339.26 1011.77 C 1341.82 1025.04 1346.29 1038.82 1350.01 1051.94 L 1370.02 1122.21 C 1381.33 1160.83 1391.67 1199.75 1402.77 1238.43 C 1409.08 1260.42 1424.71 1275.52 1448.13 1277.2 L 1449.73 1278.59 C 1447.04 1278.72 1444.64 1278.91 1441.95 1279.16 C 1426.62 1277.54 1410.73 1264.6 1404.66 1250.64 C 1399.61 1239.04 1396.74 1226.31 1393.31 1214.13 L 1377.52 1158.86 L 1348.98 1058.16 C 1342.64 1035.63 1327.14 1002.98 1345.1 984.167 C 1359.9 968.67 1383.04 973.072 1402.55 973.448 C 1421.97 973.769 1441.4 973.888 1460.82 973.806 L 1709.37 973.792 C 1714.22 939.606 1719.33 905.457 1724.7 871.347 C 1728.18 847.998 1731.18 822.53 1735.41 799.489 z" fill="rgb(3,3,3)" transform="translate(0,0)"></path>
<path d="M 1914.16 854.696 C 1915.8 857.257 1915.87 857.38 1916.29 860.486 C 1917.76 871.271 1924.07 880.21 1929.29 889.612 C 1921.1 888.676 1918.9 888.466 1910.77 886.553 C 1910.45 879.25 1912.37 862.072 1914.16 854.696 z" fill="rgb(164,172,240)" transform="translate(0,0)"></path>
<path d="M 1441.95 1279.16 C 1444.64 1278.91 1447.04 1278.72 1449.73 1278.59 C 1452.69 1279.01 1455.46 1279.4 1458.41 1279.91 C 1452.42 1280.05 1447.89 1280.21 1441.95 1279.16 z" fill="rgb(10,21,62)" transform="translate(0,0)"></path>
<path d="M 1589.83 754.416 C 1611.7 746.804 1637.4 742.42 1659.82 735.6 C 1671.67 731.996 1686.9 728.284 1699.07 726.209 C 1699.4 746.678 1697.88 767.155 1697.38 787.615 C 1696.92 806.299 1698.22 871.596 1693.22 885.371 C 1690.33 893.334 1684.1 900.272 1676.31 903.709 C 1667.91 907.416 1657.31 907.582 1648.82 904.077 C 1642.2 901.349 1637.25 896.255 1634.81 889.514 C 1631.82 881.211 1632.8 871.761 1636.67 863.912 C 1640.72 855.672 1647.94 849.272 1656.79 846.663 C 1666.95 843.67 1676.18 846.287 1685.08 851.368 L 1686.31 852.085 C 1686.99 826.74 1687.19 801.384 1686.92 776.031 C 1679.15 777.198 1660.23 783.185 1651.72 785.516 C 1633.94 790.214 1616.11 794.767 1598.25 799.174 C 1598.28 818.242 1598.14 837.31 1597.81 856.375 C 1598.05 865.154 1598.24 902.037 1597.11 908.213 C 1594.93 938.705 1542.68 948.963 1535.9 916.858 C 1529.28 885.545 1558.57 865.212 1588.26 881.355 C 1588.31 840.417 1588.31 795.15 1589.83 754.416 z" fill="rgb(3,3,3)" transform="translate(0,0)"></path>
<path d="M 1592.88 756.451 C 1603.8 753.325 1614.92 750.606 1625.97 747.968 C 1649.55 742.34 1673.12 733.96 1696.87 729.297 C 1696.27 742.357 1695.8 755.877 1694.89 768.876 C 1693.94 770.718 1694.11 770.659 1692.29 771.531 C 1682.59 772.632 1669.09 777.474 1659.32 780.13 C 1639.14 785.617 1615.41 793.448 1594.93 796.957 C 1597.44 806.254 1595.44 839.747 1595.91 850.973 C 1594.33 862.631 1596.04 880.375 1594.2 890.196 C 1590.54 883.386 1591.18 875.229 1591.44 867.605 C 1592.57 834.638 1590.97 800.649 1592.82 767.799 C 1592.7 763.68 1592.57 760.545 1592.88 756.451 z" fill="rgb(2,16,254)" transform="translate(0,0)"></path>
<path d="M 1692.29 771.531 C 1694.11 770.659 1693.94 770.718 1694.89 768.876 C 1694.57 777.091 1693.69 857.404 1692.21 858.79 C 1689.76 859.368 1689.68 850.265 1689.78 849.479 C 1692.04 832.44 1686.64 784.88 1692.29 771.531 z" fill="rgb(9,17,215)" transform="translate(0,0)"></path>
<path d="M 1595.91 850.973 C 1596.52 855.843 1596.34 859.368 1596.48 864.205 L 1596.44 864.158 C 1597.13 861.295 1596.66 860.188 1597.81 856.375 C 1598.05 865.154 1598.24 902.037 1597.11 908.213 C 1596.67 901.552 1599.16 893.352 1594.2 890.196 C 1596.04 880.375 1594.33 862.631 1595.91 850.973 z" fill="rgb(10,21,62)" transform="translate(0,0)"></path>
<path d="M 1661.9 848.147 C 1701.56 845.431 1704.63 891.609 1669.13 903.427 C 1626.42 907.972 1624.91 857.5 1661.9 848.147 z" fill="rgb(2,16,254)" transform="translate(0,0)"></path>
<path d="M 1565 878.114 C 1603.94 875.638 1605.9 925.385 1567.26 933.65 C 1529.09 935.616 1526.48 887.152 1565 878.114 z" fill="rgb(2,16,254)" transform="translate(0,0)"></path>
<path d="M 1156.01 972.868 L 1214.1 1064.12 C 1229.59 1088.04 1248.14 1115.59 1262.12 1140.25 L 1247.39 1142.24 C 1252.52 1151.04 1256.92 1158.41 1261.16 1167.72 C 1253.43 1169.1 1245.79 1169.83 1238.04 1170.92 C 1171.63 1180.27 1103.55 1186 1037.34 1196.12 C 1041.15 1189.77 1050.83 1174.39 1051.69 1167.98 C 1050.69 1167.2 1051.26 1167.75 1050.31 1166.04 C 1053.97 1156.98 1064.2 1139.3 1069.18 1129.52 C 1053.16 1125.79 1035.64 1121.28 1019.28 1120.24 C 937.386 1115.02 843.577 1147.73 796.389 1218 C 791.872 1216.76 792.548 1216.67 792.321 1211.91 L 793.627 1208.79 C 798.504 1185.36 816.519 1142.67 828.901 1122.04 C 879.709 1037.39 987.996 986.298 1085.35 1009.28 C 1099.2 1012.55 1113.46 1018.99 1126.66 1024.5 C 1135.08 1007.84 1146.47 989.145 1156.01 972.868 z" fill="rgb(3,3,3)" transform="translate(0,0)"></path>
<path d="M 793.627 1208.79 C 798.956 1202.31 805.777 1188.12 811.587 1180.3 C 871.448 1099.73 992.726 1071.1 1082.7 1106.22 C 1078.14 1113.96 1073.64 1121.73 1069.18 1129.52 C 1053.16 1125.79 1035.64 1121.28 1019.28 1120.24 C 937.386 1115.02 843.577 1147.73 796.389 1218 C 791.872 1216.76 792.548 1216.67 792.321 1211.91 L 793.627 1208.79 z" fill="rgb(2,16,254)" transform="translate(0,0)"></path>
<path d="M 1051.69 1167.98 C 1054.39 1166.56 1057.81 1165.78 1060.84 1165.47 C 1123.19 1159.25 1185.24 1149.6 1247.39 1142.24 C 1252.52 1151.04 1256.92 1158.41 1261.16 1167.72 C 1253.43 1169.1 1245.79 1169.83 1238.04 1170.92 C 1171.63 1180.27 1103.55 1186 1037.34 1196.12 C 1041.15 1189.77 1050.83 1174.39 1051.69 1167.98 z" fill="rgb(2,16,254)" transform="translate(0,0)"></path>
<path d="M 792.321 1211.91 C 792.548 1216.67 791.872 1216.76 796.389 1218 C 795.594 1219.94 787.597 1232.55 786.061 1235.03 C 788.056 1226.94 790.302 1219.72 792.321 1211.91 z" fill="rgb(9,17,215)" transform="translate(0,0)"></path>
<metadata><recraft-signature>{"signed_by": "recraft", "signature_b64": "pB7wkz8Ek5bxU3kvyDCMHuYNozF4R6a7cTFGIe36yEqZ1IzWl9KE2HeeiCgZeJyQEGYkCWwGNCEd1Q+4UYViCw==", "signing_algo": "Ed25519", "generation_timestamp": 1781473792, "identifier": "f1458661-9cf3-4ba0-8267-5888169ace51"}</recraft-signature></metadata></svg>